<svg xmlns="http://www.w3.org/2000/svg" xml:space="preserve" style="fill-rule:evenodd;clip-rule:evenodd;stroke-linejoin:round;stroke-miterlimit:2" viewBox="0 0 405 396"><path d="M197.382 92.806c.668-.023 5.293-.18 8.313-.869 3.834-.875 4.626-1.161 14.965-6.064 10.148-4.813 10.15-4.786 11.025-5.217a25780 25780 0 0 1 29.257-13.801c7.363-3.441 7.337-3.495 7.986-3.775 1.52-.656 6.496-3.066 6.717-3.163 1.372-.601 27.802-13.053 28.009-13.142 1.229-.528 7.397-3.492 8.791-4.138 6.953-3.219 12.466-6.044 22.775-1.195 2.546 1.197 20.978 10.029 21.356 10.228 8.279 4.354 9.521 4.627 11.236 6.077 1.96 1.657 3.04 3.102 3.578 5.242 1.487 5.921-4.017 9.3-4.17 9.417-.425.327-2.167 1.664-5.831 3.305-.025.011-18.695 8.729-20.484 9.62-2.311 1.152-5.536 2.58-5.925 2.77-7.346 3.573-15.559 7.199-17.129 8.009-1.834.947-37.652 17.812-40.607 19.168-4.643 2.13-4.6 2.202-5.59 2.642-1.303.58-2.815 1.29-3.059 1.405-5.128 2.41-5.111 2.429-5.586 2.651-17.089 7.999-17.076 8.02-18.564 8.711-7.67 3.561-7.644 3.614-8.317 3.911-2.085.921-7.374 3.471-9.441 4.441-7.362 3.453-7.338 3.491-7.989 3.766-2.718 1.145-7.002 3.28-9.418 4.126-2.683.939-7.258 1.471-7.551 1.494-10.748.84-16.745-1.373-17.043-1.465-3.814-1.172-10.973-4.851-26.105-11.854-.822-.38-9.433-4.366-10.256-4.783-.92-.466-7.359-3.443-8.322-3.899-16.176-7.666-16.211-7.588-17.613-8.264-10.995-5.298-59.755-28.112-59.814-28.142-1.969-1.001-15.941-7.393-18.579-8.681-5.028-2.454-12.379-5.716-16.5-8.095-4.913-2.836-6.942-7.75-4.668-12.136.133-.257.925-1.783 2.246-2.839 2.714-2.167 2.861-1.934 8.778-4.984 4.324-2.228 4.357-2.149 8.7-4.328 2.408-1.209 12.236-5.918 15.318-7.304.494-.222 4.805-2.161 6.325-2.42 4.582-.782 7.942-.297 11.443.968 1.629.588 8.875 3.961 9.035 4.039 3.409 1.672 3.427 1.618 6.862 3.252 6.763 3.218 6.78 3.181 7.367 3.462 10.943 5.235 20.103 9.474 20.145 9.495 4.607 2.278 9.696 4.544 11.497 5.459.171.087 6.911 3.263 7.513 3.546 4.235 1.995 4.801 2.217 5.13 2.384 1.905.968 10.246 4.818 11.031 5.208 3.405 1.689 3.442 1.594 6.869 3.234 5.949 2.845 5.973 2.791 6.572 3.077 10.859 5.194 10.915 5.07 11.854 5.532 7.517 3.7 12.779 3.813 17.867 3.919Z" style="fill:#03e7f7"/><path d="M52.752 259.594c5.864.471 7.764 1.825 15.094 5.193 17.131 7.87 59.037 27.895 62.734 29.451 2.258.95 17.895 8.53 21.779 10.173.038.016 5.864 2.865 10.686 5.104 3.033 1.408 3.018 1.419 5.574 2.679.75.37 3.575 1.576 3.887 1.709 4.844 2.068 13.433 7.945 23.688 7.962 2.975.005 2.971.002 5.924-.429 1.353-.198 5.702-1.186 7.963-2.222 2.737-1.254 2.751-1.209 5.495-2.454 2.75-1.247 14.434-6.944 16.598-7.9.737-.326.71-.382 9.116-4.287l24.786-11.691 32.776-15.461c29.401-13.914 29.54-13.977 32.128-15.15 7.212-3.271 11.127-2.54 12.984-2.323.483.057 3.541.853 4.304 1.194 2.117.946 8.416 3.913 13.156 6.472 4.66 2.516 4.888 2.193 7.165 4.339 1.019.96.993.982 1.738 2.169 1.598 2.545 2.119 7.665-1.879 11.343-1.857 1.708-2.312 1.853-11.471 6.265-2.393 1.153-4.741 2.095-11.054 5.16-.776.377-.796.322-9.773 4.566-3.762 1.779-3.747 1.788-7.515 3.546l-85.086 40.034c-.372.174-3.314 1.555-4.661 2.147-.239.105-5.052 2.444-6.718 3.162-.778.336-16.27 7.723-18.565 8.709-2.37 1.019-2.294 1.199-4.764 1.931-2.324.689-3.309 1.108-9.483 1.613-2.636.215-5.455-.028-5.928-.068-.575-.05-3.916-.337-7.118-1.149-4.577-1.159-5.913-2.357-9.85-4.019-2.548-1.075-6.208-3.11-9.087-4.348-.387-.166-6.623-3.103-7.198-3.374-6.318-2.976-6.364-2.867-12.632-5.961-.761-.376-5.26-2.328-8.188-3.78-.823-.408-2.988-1.482-10.379-4.919-4.173-1.941-4.161-1.946-8.307-3.935-1.837-.881-13.887-6.283-16.998-7.889-.124-.064-5.352-2.502-5.449-2.545-.447-.196-5.037-2.444-6.718-3.162-.54-.231-8.869-4.113-11.978-5.671-2.21-1.107-23.607-11.056-26.039-12.335-1.003-.527-5.045-2.272-5.486-2.462-.766-.331-.761-.338-9.427-4.467-2.954-1.407-2.925-1.45-5.907-2.816-3.966-1.816-5.896-2.645-7.844-4.708-.53-.562-2.811-2.71-2.758-6.599.012-.889.401-2.629.428-2.71 1.618-4.715 7.136-6.514 10.163-8.245.594-.34 9.011-4.804 11.358-5.752 4.874-1.968 6.669-1.96 8.735-2.088Z" style="fill:#c518e5"/><path d="M198.167 201.95c-5.971.044-8.69-.073-15.348-2.369-1.347-.464-8.814-3.912-9.522-4.221-.552-.24-5.425-2.611-6.715-3.167-.985-.425-3.604-1.705-3.995-1.885-3.371-1.553-3.356-1.573-6.745-3.095-4.166-1.872-12.766-6.18-16.138-7.647-.765-.333-.745-.375-9.449-4.421-3.369-1.566-3.336-1.615-6.717-3.165-2.262-1.037-13.534-6.367-14.71-6.923-5.434-2.57-18.75-8.727-25.286-11.862-.715-.343-.734-.29-8.97-4.212-3.831-1.825-3.881-1.705-7.676-3.591-.684-.34-3.41-1.546-5.922-2.77-1.348-.657-1.361-.627-16.954-7.986-4.162-1.964-4.129-2.012-8.294-3.958-8.133-3.8-8.526-4.15-10.473-5.791-.225-.19-1.826-2.076-1.954-2.304-1.758-3.119-1.516-5.409-.928-7.382.516-1.735 1.908-3.339 2.476-3.793 2.931-2.342 8.877-5.112 10.85-6.223.696-.392 6.888-3.477 7.94-3.894.745-.296 1.939-.898 4.367-1.545 6.87-1.829 12.15 1.193 15.454 2.723 17.697 8.197 32.463 15.356 45.754 21.518 2.091.97 2.059 1.015 26.069 12.274.614.288.607.299 7.656 3.635l22.866 10.784c1.01.477 1.017.454 12.66 5.893 4.955 2.315 6.13 2.8 9.462 3.538 1.17.259 2.061.349 4.689.695 1.305.172 5.853.279 6.349.246 1.275-.085 3.812-.204 7.906-1.193 2.848-.687 5.4-1.931 5.848-2.15 4.063-1.98 5.926-2.56 8.825-4.075.777-.406.827-.297 9.906-4.682.688-.332.709-.285 8.648-4.047 10.738-5.088 10.797-4.958 11.729-5.403l72.828-34.521c2.256-1.071 8.021-3.626 9.003-4.132.551-.284 2.959-1.525 7.562-1.701.338-.013 3.145.324 3.522.397 1.947.38 4.034.904 12.209 5.114 3.616 1.862 3.593 1.893 7.218 3.747.559.286 4.524 2.314 6.103 4.928 2.899 4.802 1.241 10.68-5.426 13.937-6.557 3.204-6.519 3.272-8.589 4.165-2.192.945-15.51 7.451-43.025 20.253l-55.836 26.223c-20.753 9.753-20.738 9.779-22.546 10.619-.875.406-17.909 8.45-18.878 8.887-.134.061-4.132 2.374-11.461 3.985-2.874.632-3.47.411-6.343.545Z" style="fill:#02aef0"/><path d="M339.647 206.253c.316-.01 2.471-.081 3.947.181 5.045.896 9.099 3.268 15.079 6.219 5.354 2.642 8.47 4.232 10.068 5.811 3.207 3.169 2.891 6.885 2.59 8.176-1.276 5.468-5.837 7.343-9.895 9.214-8.911 4.11-8.883 4.151-17.786 8.288-6.632 3.082-6.614 3.12-7.195 3.377-2.13.942-10.932 5.129-11.857 5.526-1.182.507-14.916 7.072-15.015 7.115-2.042.887-47.498 22.232-48.66 22.803-3.762 1.849-4.163 1.816-8.98 4.176-.165.081-1.519.744-2.063 1.005-1.547.741-3.654 1.633-4.339 1.992-2.373 1.241-10.295 4.815-10.572 4.947-6.986 3.319-7.516 3.445-10.237 4.818-2.432 1.228-5.808 2.72-5.924 2.776-2.794 1.334-2.776 1.352-5.584 2.656-6.032 2.801-11.153 3.372-12.287 3.414-4.557.169-7.959.133-11.867-.644a35 35 0 0 1-4.716-1.296c-4.217-1.508-5.313-2.177-9.524-4.255-2.875-1.419-10.216-4.638-14.278-6.598-10.678-5.153-10.778-4.936-12.499-5.842-2.732-1.438-11.486-5.35-15.036-7.073-3.503-1.699-4.268-1.878-7.226-3.318a1614 1614 0 0 0-12.133-5.786c-6.958-3.163-6.922-3.236-7.529-3.508-1.069-.478-10.382-4.88-10.721-5.026-1.51-.65-6.373-3.011-6.718-3.161-1.415-.614-41.292-19.341-41.78-19.583-3.524-1.748-4.674-2.171-5.927-2.772-9.09-4.361-9.127-4.28-9.906-4.682-1.669-.862-3.579-1.54-5.454-3.197-3.72-3.286-3.656-6.929-3.536-7.739.311-2.109.82-3.812 3.172-6.179 1.632-1.642 8.461-4.73 13.749-7.512 8.161-4.295 11.844-4.605 15.74-4.221 4.86.478 10.426 3.835 14.621 5.614 2.587 1.097 12.5 5.902 15.352 7.241 8.395 3.94 8.379 3.961 9.117 4.285 1.558.684 9.725 4.575 9.918 4.659 1.674.727 6.71 3.162 6.716 3.165 2.934 1.302 10.192 4.879 21.766 10.2 4.749 2.183 23.567 11.099 23.674 11.145 3.583 1.532 3.53 1.628 7.048 3.3 2.689 1.278 6.234 2.919 6.711 3.172.035.018 11.542 5.438 15.132 6.845 2.777 1.089 6.903 1.9 9.821 1.979 9.82.266 12.718-.877 27.724-7.997 12.882-6.112 30.057-14.172 30.387-14.313 1.669-.716 9.186-4.381 10.231-4.835.215-.093 14.44-6.909 16.628-7.834 2.123-.897 6.821-3.226 8.651-4.043 4.059-1.812 18.321-8.734 19.809-9.372 2.097-.899 22.229-10.475 23.714-11.049 2.666-1.031 4.31-1.971 7.883-2.263Z" style="fill:#8142ea"/><path d="M200.133 214.586c6.052-.544 10.953-2.633 11.853-3.017 2.363-1.007 31.801-14.975 32.797-15.409.463-.201 15.391-7.323 17.431-8.203 1.386-.598 6.295-3.033 7.507-3.559 1.483-.643 6.419-3.051 6.709-3.18 1.621-.717 9.754-4.628 10.227-4.842 2.635-1.191 5.986-2.867 8.777-4.17 14.151-6.608 14.092-6.729 15.337-7.271 5.422-2.361 19.446-9.376 24.567-11.286.587-.219 2.619-.709 3.138-.786 1.38-.204 3.804-.685 8.291.598 2.424.693 8.343 3.484 10.187 4.533 1.616.919 8.877 4.465 9.997 5.338 1.663 1.297 1.7 1.266 2.998 2.921 1.99 2.535 1.979 5.818 1.238 7.792-2.049 5.462-7.383 6.965-15.804 10.961-2.581 1.225-28.073 13.324-32.307 15.225-4.62 2.074-16.568 7.736-16.656 7.774-.928.401-59.288 27.93-60.466 28.437-1.552.667-5.455 2.618-7.833 3.708-4.776 2.188-4.746 2.23-7.52 3.529-.948.444-10.559 4.941-11.863 5.515-7.427 3.273-7.289 3.693-13.895 5.298-4.386 1.066-10.511.981-13.372.465-1.796-.324-5.68-.666-11.795-3.613-4.144-1.997-4.179-1.907-8.348-3.846-.628-.292-7.056-3.281-7.85-3.666-14.115-6.858-16.995-7.915-19.36-9.092-3.399-1.692-3.434-1.6-6.87-3.234-5.595-2.659-27.511-12.894-27.537-12.908-1.25-.649-5.299-2.459-7.527-3.518-7.936-3.771-7.964-3.708-8.651-4.041-.916-.444-2.942-1.427-11.501-5.445-10.244-4.809-10.233-4.821-20.512-9.56-.952-.439-3.817-1.876-6.046-2.907-1.142-.529-12.084-5.593-14.255-6.659-6.382-3.134-13.361-5.977-15.45-7.933-1.85-1.731-1.804-1.78-2.432-2.78-.166-.264-1.18-1.878-1.297-3.672-.393-6 4.072-8.218 4.508-8.489 1.817-1.127 1.721-1.298 9.135-5.092 6.152-3.149 6.203-3.036 9.108-4.327.394-.175 2.516-1.118 5.196-1.437 6.324-.753 9.913 1.49 15.837 4.267 5.455 2.558 5.439 2.578 5.917 2.79 1.133.501 7.064 3.401 8.306 3.934 1.606.689 6.141 2.918 6.714 3.169 1.695.741 16.914 7.962 18.077 8.512 8.823 4.168 8.804 4.194 9.583 4.531 2.96 1.28 3.428 1.793 9.803 4.515 3.423 1.461 8.68 4.178 9.559 4.577 2.569 1.168 5.389 2.539 5.924 2.773 1.815.795 6.98 3.332 7.505 3.563.88.388 14.36 6.71 14.576 6.81.577.267 4.691 2.169 7.206 3.355 8.983 4.237 8.995 4.201 9.76 4.6 10.455 5.453 19.785 4.536 21.378 4.45Z" style="fill:#4679ee"/></svg>
